<?xml version="1.0" standalone="no"?>
<!DOCTYPE svg PUBLIC "-//W3C//DTD SVG 20010904//EN"
 "http://www.w3.org/TR/2001/REC-SVG-20010904/DTD/svg10.dtd">
<svg version="1.0" xmlns="http://www.w3.org/2000/svg"
 width="1600.000000pt" height="1600.000000pt" viewBox="0 0 1600.000000 1600.000000"
 preserveAspectRatio="xMidYMid meet">
<metadata>
Created by potrace 1.11, written by Peter Selinger 2001-2013
</metadata>
<g transform="translate(0.000000,1600.000000) scale(0.100000,-0.100000)"
fill="#000000" stroke="none">
<path d="M9 11388 c-1 -7 -2 -1535 -3 -3395 -1 -2250 2 -3383 9 -3384 70 -7
144 -5 138 4 -4 6 -1 7 8 1 21 -13 91 -15 83 -2 -5 7 -2 8 6 3 22 -14 92 -16
84 -3 -5 7 -3 8 7 2 19 -12 299 -13 292 0 -4 5 -1 6 8 0 21 -13 91 -15 83 -2
-5 7 -2 8 6 3 22 -14 92 -16 84 -3 -5 7 -3 8 7 2 19 -12 299 -13 292 0 -4 5
-1 6 8 0 21 -13 91 -15 83 -2 -5 7 -2 8 6 3 22 -14 92 -16 84 -3 -5 7 -3 8 7
2 19 -12 299 -13 292 0 -4 5 -1 6 8 0 21 -13 91 -15 83 -2 -5 7 -2 8 6 3 22
-14 92 -16 84 -3 -5 7 -3 8 7 2 19 -12 299 -13 292 0 -4 5 -1 6 8 0 21 -13 91
-15 83 -2 -5 7 -2 8 6 3 22 -14 92 -16 84 -3 -5 7 -2 8 7 2 21 -13 251 -14
268 0 10 7 13 8 8 0 -4 -7 18 -11 73 -10 47 0 76 4 73 10 -4 5 -1 6 8 0 20
-12 160 -14 152 -1 -4 6 -1 7 8 1 20 -12 160 -14 152 -1 -4 6 -1 7 8 1 20 -12
160 -14 152 -1 -4 6 -1 7 8 1 20 -12 160 -14 152 -1 -4 6 -1 7 8 1 20 -12 160
-14 152 -1 -4 6 -1 7 8 1 20 -12 160 -14 152 -1 -4 6 -1 7 8 1 20 -12 160 -14
152 -1 -4 6 -1 7 8 2 20 -13 190 -14 182 -2 -4 6 -1 7 8 1 21 -13 91 -15 83
-2 -5 7 -2 8 6 3 22 -14 92 -16 84 -3 -5 7 -3 8 7 2 19 -12 299 -13 292 0 -4
5 -1 6 8 0 21 -13 91 -15 83 -2 -5 7 -2 8 6 3 22 -14 92 -16 84 -3 -5 7 -3 8
7 2 19 -12 299 -13 292 0 -4 5 -1 6 8 0 21 -13 91 -15 83 -2 -5 7 -2 8 6 3 22
-14 92 -16 84 -3 -5 7 -3 8 7 2 19 -12 299 -13 292 0 -4 5 -1 6 8 0 21 -13 91
-15 83 -2 -5 7 -2 8 6 3 22 -14 92 -16 84 -3 -5 7 -3 8 7 2 19 -12 299 -13
292 0 -4 5 -1 6 8 0 21 -13 91 -15 83 -2 -5 7 -2 8 6 3 22 -14 92 -16 84 -3
-5 7 -3 8 7 2 19 -12 429 -13 422 0 -4 5 -1 6 8 0 20 -12 160 -14 152 -1 -4 6
-1 7 8 1 20 -12 160 -14 152 -1 -4 6 -1 7 8 1 20 -12 160 -14 152 -1 -4 6 -1
7 8 1 20 -12 160 -14 152 -1 -4 6 -1 7 8 1 20 -12 160 -14 152 -1 -4 6 -1 7 8
1 20 -12 160 -14 152 -1 -4 6 -1 7 8 1 20 -12 160 -14 152 -1 -4 6 -1 7 8 2
20 -13 190 -14 182 -2 -4 6 -1 7 8 1 21 -13 91 -15 83 -2 -5 7 -2 8 6 3 22
-14 92 -16 84 -3 -5 7 -3 8 7 2 19 -12 299 -13 292 0 -4 5 -1 6 8 0 21 -13 91
-15 83 -2 -5 7 -2 8 6 3 22 -14 92 -16 84 -3 -5 7 -3 8 7 2 19 -12 299 -13
292 0 -4 5 -1 6 8 0 21 -13 91 -15 83 -2 -5 7 -2 8 6 3 22 -14 92 -16 84 -3
-5 7 -3 8 7 2 19 -12 299 -13 292 0 -4 5 -1 6 8 0 21 -13 91 -15 83 -2 -5 7
-2 8 6 3 22 -14 92 -16 84 -3 -5 7 -3 8 7 2 19 -12 299 -13 292 0 -4 5 -1 6 8
0 21 -13 91 -15 83 -2 -5 7 -2 8 6 3 22 -14 92 -16 84 -3 -5 7 -3 8 7 2 19
-12 459 -12 452 0 -4 5 -1 6 8 0 21 -13 91 -15 83 -2 -5 7 -2 8 6 3 22 -14 92
-16 84 -3 -5 7 -3 8 7 2 19 -12 299 -13 292 0 -4 5 -1 6 8 0 21 -13 91 -15 83
-2 -5 7 -2 8 6 3 22 -14 92 -16 84 -3 -5 7 -3 8 7 2 19 -12 299 -13 292 0 -4
5 -1 6 8 0 21 -13 91 -15 83 -2 -5 7 -2 8 6 3 22 -14 92 -16 84 -3 -5 7 -3 8
7 2 19 -12 299 -13 292 0 -4 5 -1 6 8 0 21 -13 91 -15 83 -2 -5 7 -2 8 6 3 22
-14 92 -16 84 -3 -5 7 -3 8 7 2 19 -12 299 -13 292 0 -4 5 -1 6 8 0 21 -13 91
-15 83 -2 -5 7 -2 8 6 3 22 -14 92 -16 84 -3 -5 7 -3 8 7 2 19 -12 429 -13
422 0 -4 5 -1 6 8 0 20 -12 160 -14 152 -1 -4 6 -1 7 8 1 20 -12 160 -14 152
-1 -4 6 -1 7 8 1 20 -12 160 -14 152 -1 -4 6 -1 7 8 1 20 -12 160 -14 152 -1
-4 6 -1 7 8 1 20 -12 160 -14 152 -1 -4 6 -1 7 8 1 20 -12 160 -14 152 -1 -4
6 -1 7 8 1 20 -12 160 -14 152 -1 -4 6 -1 7 8 2 20 -13 190 -14 182 -2 -4 6
-1 7 8 1 21 -13 91 -15 83 -2 -5 7 -2 8 6 3 22 -14 92 -16 84 -3 -5 7 -3 8 7
2 19 -12 299 -13 292 0 -4 5 -1 6 8 0 21 -13 91 -15 83 -2 -5 7 -2 8 6 3 22
-14 92 -16 84 -3 -5 7 -3 8 7 2 19 -12 299 -13 292 0 -4 5 -1 6 8 0 21 -13 91
-15 83 -2 -5 7 -2 8 6 3 22 -14 92 -16 84 -3 -5 7 -3 8 7 2 19 -12 299 -13
292 0 -4 5 -1 6 8 0 21 -13 91 -15 83 -2 -5 7 -2 8 6 3 22 -14 92 -16 84 -3
-5 7 -3 8 7 2 15 -9 93 -14 120 -8 13 4 15 25 14 142 0 75 -4 143 -9 151 -6 9
-5 12 1 8 13 -8 11 91 -1 112 -6 9 -5 12 1 8 12 -7 11 252 -1 272 -6 9 -5 12
1 8 13 -8 11 91 -1 112 -6 9 -5 12 1 8 13 -8 11 91 -1 112 -6 9 -5 12 1 8 13
-8 11 91 -1 112 -6 8 -5 12 0 8 12 -7 12 733 0 752 -6 9 -5 12 1 8 13 -8 11
91 -1 112 -6 9 -5 12 1 8 13 -8 11 91 -1 112 -6 9 -5 12 1 8 13 -8 11 91 -1
112 -6 9 -5 12 1 8 13 -8 11 91 -1 112 -6 9 -5 12 1 8 13 -8 11 91 -1 112 -6
9 -5 12 1 8 13 -8 11 91 -1 112 -6 9 -5 12 1 8 13 -8 11 91 -1 112 -6 9 -5 12
1 8 13 -8 11 91 -1 112 -6 9 -5 12 1 8 13 -8 11 91 -1 112 -6 9 -5 12 1 8 13
-8 11 91 -1 112 -6 8 -5 12 0 8 12 -7 12 693 0 712 -6 9 -5 12 1 8 13 -8 11
91 -1 112 -6 9 -5 12 1 8 13 -8 11 91 -1 112 -6 9 -5 12 1 8 13 -8 11 91 -1
112 -6 9 -5 12 1 8 13 -8 11 91 -1 112 -6 9 -5 12 1 8 13 -8 11 91 -1 112 -6
9 -5 12 1 8 13 -8 11 91 -1 112 -6 9 -5 12 1 8 13 -8 11 91 -1 112 -6 9 -5 12
1 8 13 -8 11 91 -1 112 -6 9 -5 12 1 8 13 -8 11 91 -1 112 -6 9 -5 12 1 8 13
-8 11 91 -1 112 -6 8 -5 12 0 8 12 -7 12 693 0 712 -6 9 -5 12 1 8 13 -8 11
91 -1 112 -6 9 -5 12 1 8 13 -8 11 91 -1 112 -6 9 -5 12 1 8 13 -8 11 91 -1
112 -6 9 -5 12 1 8 13 -8 11 91 -1 112 -6 9 -5 12 1 8 13 -8 11 91 -1 112 -6
9 -5 12 1 8 13 -8 11 91 -1 112 -6 9 -5 12 1 8 13 -8 11 91 -1 112 -6 9 -5 12
1 8 13 -8 11 91 -1 112 -6 9 -5 12 1 8 13 -8 11 91 -1 112 -6 10 -5 12 2 7 8
-5 11 1 10 18 -1 15 -7 27 -13 27 -5 1 -3554 2 -7885 3 -5542 2 -7879 -1
-7889 -8 -11 -8 -13 -8 -8 1 9 15 -35 14 -45 -2 -5 -6 -8 -6 -8 3 0 6 -6 12
-14 12 -8 0 -17 -6 -19 -12 -4 -10 -6 -10 -6 0 -1 6 -7 12 -15 12 -8 0 -17 -6
-19 -12 -4 -10 -6 -10 -6 0 -1 6 -7 12 -15 12 -8 0 -17 -6 -19 -12 -4 -10 -6
-10 -6 0 -1 6 -5 12 -11 12 -5 0 -11 -6 -11 -12z"/>
</g>
</svg>
